<?xml version="1.0" encoding="UTF-8" standalone="no"?>
<!DOCTYPE svg PUBLIC "-//W3C//DTD SVG 1.1//EN"
 "http://www.w3.org/Graphics/SVG/1.1/DTD/svg11.dtd">
<!-- Generated by graphviz version 2.40.1 (20161225.0304)
 -->
<!-- Title: tview Pages: 1 -->
<svg width="470pt" height="692pt"
 viewBox="0.00 0.00 470.09 692.00" xmlns="http://www.w3.org/2000/svg" xmlns:xlink="http://www.w3.org/1999/xlink">
<g id="graph0" class="graph" transform="scale(1 1) rotate(0) translate(4 688)">
<title>tview</title>
<polygon fill="#ffffff" stroke="transparent" points="-4,4 -4,-688 466.0884,-688 466.0884,4 -4,4"/>
<!-- MouseAction -->
<g id="node1" class="node">
<title>MouseAction</title>
<text text-anchor="middle" x="415.9815" y="-175.8" font-family="Times,serif" font-size="14.00" fill="#000000">MouseAction</text>
</g>
<!-- Application -->
<g id="node2" class="node">
<title>Application</title>
<polygon fill="none" stroke="#000000" points="214.5017,-387 132.3083,-387 132.3083,-351 214.5017,-351 214.5017,-387"/>
<text text-anchor="middle" x="173.405" y="-364.8" font-family="Times,serif" font-size="14.00" fill="#000000">Application</text>
</g>
<!-- Focusable -->
<g id="node20" class="node">
<title>Focusable</title>
<ellipse fill="none" stroke="#000000" cx="45.9643" cy="-335" rx="45.9286" ry="18"/>
<text text-anchor="middle" x="45.9643" y="-330.8" font-family="Times,serif" font-size="14.00" fill="#000000">Focusable</text>
</g>
<!-- Application&#45;&gt;Focusable -->
<g id="edge22" class="edge">
<title>Application&#45;&gt;Focusable</title>
<path fill="none" stroke="transparent" d="M132.0287,-357.9612C119.8708,-354.7176 106.4702,-351.1424 93.9369,-347.7987"/>
<polygon fill="transparent" stroke="transparent" points="94.676,-344.3735 84.1117,-345.1774 92.8715,-351.1369 94.676,-344.3735"/>
</g>
<!-- Box -->
<g id="node3" class="node">
<title>Box</title>
<polygon fill="none" stroke="#000000" points="200.405,-333 146.405,-333 146.405,-297 200.405,-297 200.405,-333"/>
<text text-anchor="middle" x="173.405" y="-310.8" font-family="Times,serif" font-size="14.00" fill="#000000">Box</text>
</g>
<!-- Box&#45;&gt;Focusable -->
<g id="edge1" class="edge">
<title>Box&#45;&gt;Focusable</title>
<path fill="none" stroke="#ffa500" d="M146.3781,-319.2415C132.5826,-321.4065 115.3062,-324.1178 98.9924,-326.678"/>
<polygon fill="#ffa500" stroke="#ffa500" points="98.3353,-323.2382 88.9988,-328.2463 99.4206,-330.1536 98.3353,-323.2382"/>
</g>
<!-- Primitive -->
<g id="node22" class="node">
<title>Primitive</title>
<ellipse fill="none" stroke="#000000" cx="45.9643" cy="-241" rx="43.0474" ry="18"/>
<text text-anchor="middle" x="45.9643" y="-236.8" font-family="Times,serif" font-size="14.00" fill="#000000">Primitive</text>
</g>
<!-- Box&#45;&gt;Primitive -->
<g id="edge2" class="edge">
<title>Box&#45;&gt;Primitive</title>
<path fill="none" stroke="#ffa500" d="M146.3781,-299.3065C127.0297,-288.0716 100.8342,-272.8609 80.0503,-260.7925"/>
<polygon fill="#ffa500" stroke="#ffa500" points="81.624,-257.659 71.2186,-255.6642 78.1089,-263.7125 81.624,-257.659"/>
</g>
<!-- Button -->
<g id="node4" class="node">
<title>Button</title>
<polygon fill="none" stroke="#000000" points="321.4953,-198 267.2606,-198 267.2606,-162 321.4953,-162 321.4953,-198"/>
<text text-anchor="middle" x="294.3779" y="-175.8" font-family="Times,serif" font-size="14.00" fill="#000000">Button</text>
</g>
<!-- Button&#45;&gt;Box -->
<g id="edge6" class="edge">
<title>Button&#45;&gt;Box</title>
<path fill="none" stroke="#000000" d="M267.1816,-196.2308C262.7978,-199.4898 258.5133,-203.1182 254.8814,-207 233.3735,-229.9875 237.9589,-242.9588 218.8814,-268 213.3424,-275.2705 206.7901,-282.6159 200.4096,-289.2702"/>
<polygon fill="#000000" stroke="#000000" points="197.5957,-287.1392 193.0693,-296.7185 202.5815,-292.0527 197.5957,-287.1392"/>
</g>
<!-- Checkbox -->
<g id="node5" class="node">
<title>Checkbox</title>
<polygon fill="none" stroke="#000000" points="330.6439,-144 258.1119,-144 258.1119,-108 330.6439,-108 330.6439,-144"/>
<text text-anchor="middle" x="294.3779" y="-121.8" font-family="Times,serif" font-size="14.00" fill="#000000">Checkbox</text>
</g>
<!-- Checkbox&#45;&gt;Box -->
<g id="edge7" class="edge">
<title>Checkbox&#45;&gt;Box</title>
<path fill="none" stroke="#000000" d="M263.2245,-144.1621C260.1248,-146.8436 257.2536,-149.7956 254.8814,-153 223.0148,-196.045 246.2399,-221.9581 218.8814,-268 214.3791,-275.5769 208.4259,-282.8802 202.3157,-289.3791"/>
<polygon fill="#000000" stroke="#000000" points="199.7043,-287.0419 195.1482,-296.6071 204.6748,-291.9708 199.7043,-287.0419"/>
</g>
<!-- FormItem -->
<g id="node21" class="node">
<title>FormItem</title>
<ellipse fill="none" stroke="#000000" cx="173.405" cy="-99" rx="45.4527" ry="18"/>
<text text-anchor="middle" x="173.405" y="-94.8" font-family="Times,serif" font-size="14.00" fill="#000000">FormItem</text>
</g>
<!-- Checkbox&#45;&gt;FormItem -->
<g id="edge3" class="edge">
<title>Checkbox&#45;&gt;FormItem</title>
<path fill="none" stroke="#ffa500" d="M258.0821,-117.8991C247.1011,-115.4483 234.8465,-112.7132 223.1462,-110.1018"/>
<polygon fill="#ffa500" stroke="#ffa500" points="223.575,-106.6114 213.0527,-107.849 222.0501,-113.4433 223.575,-106.6114"/>
</g>
<!-- DropDown -->
<g id="node6" class="node">
<title>DropDown</title>
<polygon fill="none" stroke="#000000" points="333.8711,-90 254.8848,-90 254.8848,-54 333.8711,-54 333.8711,-90"/>
<text text-anchor="middle" x="294.3779" y="-67.8" font-family="Times,serif" font-size="14.00" fill="#000000">DropDown</text>
</g>
<!-- DropDown&#45;&gt;Box -->
<g id="edge8" class="edge">
<title>DropDown&#45;&gt;Box</title>
<path fill="none" stroke="#000000" d="M262.5435,-90.291C259.6469,-92.9213 257.0088,-95.8262 254.8814,-99 212.1217,-162.791 254.9832,-200.2185 218.8814,-268 214.7381,-275.779 208.9262,-283.1619 202.8386,-289.6735"/>
<polygon fill="#000000" stroke="#000000" points="200.228,-287.3348 195.649,-296.8891 205.1867,-292.2756 200.228,-287.3348"/>
</g>
<!-- DropDown&#45;&gt;FormItem -->
<g id="edge4" class="edge">
<title>DropDown&#45;&gt;FormItem</title>
<path fill="none" stroke="#ffa500" d="M254.7669,-80.8408C244.6363,-83.1018 233.6153,-85.5616 223.0505,-87.9196"/>
<polygon fill="#ffa500" stroke="#ffa500" points="222.1025,-84.545 213.105,-90.1393 223.6274,-91.3769 222.1025,-84.545"/>
</g>
<!-- Flex -->
<g id="node7" class="node">
<title>Flex</title>
<polygon fill="none" stroke="#000000" points="321.3779,-684 267.3779,-684 267.3779,-648 321.3779,-648 321.3779,-684"/>
<text text-anchor="middle" x="294.3779" y="-661.8" font-family="Times,serif" font-size="14.00" fill="#000000">Flex</text>
</g>
<!-- Flex&#45;&gt;Box -->
<g id="edge9" class="edge">
<title>Flex&#45;&gt;Box</title>
<path fill="none" stroke="#000000" d="M267.3087,-652.1273C262.4689,-648.4832 257.9863,-644.1112 254.8814,-639 185.8479,-525.3585 291.5071,-453.38 218.8814,-342 216.3299,-338.0871 212.9965,-334.663 209.2928,-331.6881"/>
<polygon fill="#000000" stroke="#000000" points="210.9894,-328.6092 200.7528,-325.8775 207.0516,-334.3966 210.9894,-328.6092"/>
</g>
<!-- Form -->
<g id="node8" class="node">
<title>Form</title>
<polygon fill="none" stroke="#000000" points="321.3779,-630 267.3779,-630 267.3779,-594 321.3779,-594 321.3779,-630"/>
<text text-anchor="middle" x="294.3779" y="-607.8" font-family="Times,serif" font-size="14.00" fill="#000000">Form</text>
</g>
<!-- Form&#45;&gt;Box -->
<g id="edge10" class="edge">
<title>Form&#45;&gt;Box</title>
<path fill="none" stroke="#000000" d="M267.0099,-597.758C262.3161,-594.1811 257.9655,-589.9289 254.8814,-585 196.9686,-492.4467 279.7189,-432.6576 218.8814,-342 216.2784,-338.1212 212.914,-334.7177 209.1935,-331.7538"/>
<polygon fill="#000000" stroke="#000000" points="210.8789,-328.6679 200.6376,-325.9537 206.951,-334.4621 210.8789,-328.6679"/>
</g>
<!-- Frame -->
<g id="node9" class="node">
<title>Frame</title>
<polygon fill="none" stroke="#000000" points="321.3779,-576 267.3779,-576 267.3779,-540 321.3779,-540 321.3779,-576"/>
<text text-anchor="middle" x="294.3779" y="-553.8" font-family="Times,serif" font-size="14.00" fill="#000000">Frame</text>
</g>
<!-- Frame&#45;&gt;Box -->
<g id="edge11" class="edge">
<title>Frame&#45;&gt;Box</title>
<path fill="none" stroke="#000000" d="M267.1694,-543.6559C262.4624,-540.0873 258.0662,-535.8644 254.8814,-531 208.0418,-459.4594 267.9806,-412.009 218.8814,-342 216.1991,-338.1755 212.787,-334.8048 209.0409,-331.8585"/>
<polygon fill="#000000" stroke="#000000" points="210.709,-328.7621 200.4605,-326.0752 206.7966,-334.5667 210.709,-328.7621"/>
</g>
<!-- Grid -->
<g id="node10" class="node">
<title>Grid</title>
<polygon fill="none" stroke="#000000" points="321.3779,-522 267.3779,-522 267.3779,-486 321.3779,-486 321.3779,-522"/>
<text text-anchor="middle" x="294.3779" y="-499.8" font-family="Times,serif" font-size="14.00" fill="#000000">Grid</text>
</g>
<!-- Grid&#45;&gt;Box -->
<g id="edge12" class="edge">
<title>Grid&#45;&gt;Box</title>
<path fill="none" stroke="#000000" d="M267.0401,-489.1623C262.4604,-485.6766 258.1442,-481.6104 254.8814,-477 219.0095,-426.3127 256.3529,-391.5165 218.8814,-342 216.1266,-338.3597 212.7265,-335.115 209.0357,-332.2496"/>
<polygon fill="#000000" stroke="#000000" points="210.876,-329.2691 200.6292,-326.576 206.9601,-335.0713 210.876,-329.2691"/>
</g>
<!-- InputField -->
<g id="node11" class="node">
<title>InputField</title>
<polygon fill="none" stroke="#000000" points="331.7097,-36 257.0461,-36 257.0461,0 331.7097,0 331.7097,-36"/>
<text text-anchor="middle" x="294.3779" y="-13.8" font-family="Times,serif" font-size="14.00" fill="#000000">InputField</text>
</g>
<!-- InputField&#45;&gt;Box -->
<g id="edge13" class="edge">
<title>InputField&#45;&gt;Box</title>
<path fill="none" stroke="#000000" d="M262.3825,-36.186C259.5161,-38.8359 256.929,-41.7742 254.8814,-45 201.0772,-129.7592 263.8546,-178.2424 218.8814,-268 215.0063,-275.7339 209.4098,-283.0273 203.4599,-289.4573"/>
<polygon fill="#000000" stroke="#000000" points="200.9496,-287.018 196.3946,-296.5837 205.9207,-291.9464 200.9496,-287.018"/>
</g>
<!-- InputField&#45;&gt;FormItem -->
<g id="edge5" class="edge">
<title>InputField&#45;&gt;FormItem</title>
<path fill="none" stroke="#ffa500" d="M267.2292,-36.178C248.8646,-48.4744 224.5375,-64.7632 205.2566,-77.6731"/>
<polygon fill="#ffa500" stroke="#ffa500" points="203.1546,-74.8684 196.7925,-83.3404 207.0492,-80.6849 203.1546,-74.8684"/>
</g>
<!-- List -->
<g id="node12" class="node">
<title>List</title>
<polygon fill="none" stroke="#000000" points="321.3779,-468 267.3779,-468 267.3779,-432 321.3779,-432 321.3779,-468"/>
<text text-anchor="middle" x="294.3779" y="-445.8" font-family="Times,serif" font-size="14.00" fill="#000000">List</text>
</g>
<!-- List&#45;&gt;Box -->
<g id="edge14" class="edge">
<title>List&#45;&gt;Box</title>
<path fill="none" stroke="#000000" d="M267.2027,-434.4183C262.7157,-431.0462 258.3907,-427.2116 254.8814,-423 229.6624,-392.7344 245.0535,-371.4452 218.8814,-342 215.9991,-338.7573 212.6316,-335.7919 209.0562,-333.1118"/>
<polygon fill="#000000" stroke="#000000" points="210.7275,-330.0193 200.4666,-327.3799 206.8419,-335.842 210.7275,-330.0193"/>
</g>
<!-- Pages -->
<g id="node13" class="node">
<title>Pages</title>
<polygon fill="none" stroke="#000000" points="321.3779,-414 267.3779,-414 267.3779,-378 321.3779,-378 321.3779,-414"/>
<text text-anchor="middle" x="294.3779" y="-391.8" font-family="Times,serif" font-size="14.00" fill="#000000">Pages</text>
</g>
<!-- Pages&#45;&gt;Box -->
<g id="edge15" class="edge">
<title>Pages&#45;&gt;Box</title>
<path fill="none" stroke="#000000" d="M267.498,-377.8576C263.2549,-374.9269 258.9329,-371.9021 254.8814,-369 238.622,-357.3538 235.5041,-353.1213 218.8814,-342 215.8002,-339.9386 212.5597,-337.8558 209.2868,-335.8096"/>
<polygon fill="#000000" stroke="#000000" points="210.9921,-332.7499 200.6349,-330.5188 207.3402,-338.7218 210.9921,-332.7499"/>
</g>
<!-- Table -->
<g id="node14" class="node">
<title>Table</title>
<polygon fill="none" stroke="#000000" points="321.3779,-360 267.3779,-360 267.3779,-324 321.3779,-324 321.3779,-360"/>
<text text-anchor="middle" x="294.3779" y="-337.8" font-family="Times,serif" font-size="14.00" fill="#000000">Table</text>
</g>
<!-- Table&#45;&gt;Box -->
<g id="edge16" class="edge">
<title>Table&#45;&gt;Box</title>
<path fill="none" stroke="#000000" d="M267.2292,-335.9407C250.419,-332.1888 228.6127,-327.3218 210.254,-323.2244"/>
<polygon fill="#000000" stroke="#000000" points="210.9854,-319.8015 200.4631,-321.0391 209.4605,-326.6334 210.9854,-319.8015"/>
</g>
<!-- TableCell -->
<g id="node15" class="node">
<title>TableCell</title>
<polygon fill="none" stroke="#000000" points="451.2045,-360 380.7584,-360 380.7584,-324 451.2045,-324 451.2045,-360"/>
<text text-anchor="middle" x="415.9815" y="-337.8" font-family="Times,serif" font-size="14.00" fill="#000000">TableCell</text>
</g>
<!-- TableCell&#45;&gt;Table -->
<g id="edge20" class="edge">
<title>TableCell&#45;&gt;Table</title>
<path fill="none" stroke="transparent" d="M380.8087,-342C365.5346,-342 347.6194,-342 332.0722,-342"/>
<polygon fill="transparent" stroke="transparent" points="331.7487,-338.5001 321.7487,-342 331.7486,-345.5001 331.7487,-338.5001"/>
</g>
<!-- TextView -->
<g id="node16" class="node">
<title>TextView</title>
<polygon fill="none" stroke="#000000" points="329.5461,-306 259.2098,-306 259.2098,-270 329.5461,-270 329.5461,-306"/>
<text text-anchor="middle" x="294.3779" y="-283.8" font-family="Times,serif" font-size="14.00" fill="#000000">TextView</text>
</g>
<!-- TextView&#45;&gt;Box -->
<g id="edge17" class="edge">
<title>TextView&#45;&gt;Box</title>
<path fill="none" stroke="#000000" d="M259.0623,-295.8821C243.7305,-299.304 225.7725,-303.3121 210.2703,-306.772"/>
<polygon fill="#000000" stroke="#000000" points="209.4876,-303.3605 200.4901,-308.9549 211.0124,-310.1924 209.4876,-303.3605"/>
</g>
<!-- Theme -->
<g id="node17" class="node">
<title>Theme</title>
<polygon fill="none" stroke="#000000" points="200.7743,-259 146.0357,-259 146.0357,-223 200.7743,-223 200.7743,-259"/>
<text text-anchor="middle" x="173.405" y="-236.8" font-family="Times,serif" font-size="14.00" fill="#000000">Theme</text>
</g>
<!-- Theme&#45;&gt;Primitive -->
<g id="edge23" class="edge">
<title>Theme&#45;&gt;Primitive</title>
<path fill="none" stroke="transparent" d="M145.7523,-241C132.1806,-241 115.3541,-241 99.4092,-241"/>
<polygon fill="transparent" stroke="transparent" points="99.1016,-237.5001 89.1016,-241 99.1015,-244.5001 99.1016,-237.5001"/>
</g>
<!-- TreeNode -->
<g id="node18" class="node">
<title>TreeNode</title>
<polygon fill="none" stroke="#000000" points="451.9635,-252 379.9994,-252 379.9994,-216 451.9635,-216 451.9635,-252"/>
<text text-anchor="middle" x="415.9815" y="-229.8" font-family="Times,serif" font-size="14.00" fill="#000000">TreeNode</text>
</g>
<!-- TreeView -->
<g id="node19" class="node">
<title>TreeView</title>
<polygon fill="none" stroke="#000000" points="329.5253,-252 259.2306,-252 259.2306,-216 329.5253,-216 329.5253,-252"/>
<text text-anchor="middle" x="294.3779" y="-229.8" font-family="Times,serif" font-size="14.00" fill="#000000">TreeView</text>
</g>
<!-- TreeNode&#45;&gt;TreeView -->
<g id="edge21" class="edge">
<title>TreeNode&#45;&gt;TreeView</title>
<path fill="none" stroke="transparent" d="M380.1541,-234C367.5501,-234 353.2131,-234 339.9172,-234"/>
<polygon fill="transparent" stroke="transparent" points="339.5303,-230.5001 329.5303,-234 339.5303,-237.5001 339.5303,-230.5001"/>
</g>
<!-- TreeView&#45;&gt;Box -->
<g id="edge18" class="edge">
<title>TreeView&#45;&gt;Box</title>
<path fill="none" stroke="#000000" d="M267.2292,-252.178C250.0299,-263.6942 227.6005,-278.7122 208.9848,-291.1768"/>
<polygon fill="#000000" stroke="#000000" points="206.8251,-288.4107 200.4631,-296.8827 210.7197,-294.2272 206.8251,-288.4107"/>
</g>
<!-- FormItem&#45;&gt;Primitive -->
<g id="edge19" class="edge">
<title>FormItem&#45;&gt;Primitive</title>
<path fill="none" stroke="#000000" d="M158.0327,-116.1285C135.643,-141.0761 93.9336,-187.5505 68.1972,-216.2271"/>
<polygon fill="#000000" stroke="#000000" points="65.4656,-214.0307 61.3912,-223.8107 70.6752,-218.7062 65.4656,-214.0307"/>
</g>
</g>
</svg>
